<?xml version="1.0" standalone="no"?>
<!DOCTYPE svg PUBLIC "-//W3C//DTD SVG 20010904//EN"
 "http://www.w3.org/TR/2001/REC-SVG-20010904/DTD/svg10.dtd">
<svg version="1.0" xmlns="http://www.w3.org/2000/svg"
 width="410.402972pt" height="410.340333pt" viewBox="0 0 410.402972 410.340333"
 preserveAspectRatio="xMidYMid meet">
<metadata>
Created by potrace 1.12, written by Peter Selinger 2001-2015
</metadata>
<g transform="translate(-48.551658,453.570449) scale(0.100000,-0.100000)"
fill="#000000" stroke="none">
<path d="M2395 4530 c-273 -24 -574 -108 -800 -223 -297 -152 -592 -414 -776
-692 -152 -228 -274 -544 -321 -830 -17 -104 -17 -490 0 -609 7 -49 26 -139
42 -201 163 -634 607 -1148 1205 -1398 106 -44 317 -106 415 -122 208 -34 511
-29 770 11 265 41 569 171 823 351 105 74 365 334 440 440 223 313 357 667
388 1023 26 301 -8 605 -98 860 -160 453 -430 798 -834 1065 -341 226 -860
360 -1254 325z m395 -154 c321 -39 665 -187 941 -407 298 -237 549 -610 644
-955 61 -222 69 -284 69 -534 0 -243 -7 -302 -63 -515 -81 -308 -275 -632
-518 -866 -265 -256 -583 -424 -943 -500 -147 -31 -166 -33 -375 -33 -230 -1
-283 5 -475 51 -520 125 -996 506 -1237 988 -140 279 -200 508 -210 801 -12
345 47 616 200 922 96 192 193 328 341 481 270 277 601 459 1005 551 131 30
435 38 621 16z"/>
<path d="M2419 3878 c-63 -45 -206 -147 -319 -226 -225 -159 -324 -232 -445
-331 -120 -98 -413 -361 -474 -425 -49 -53 -53 -60 -48 -94 3 -20 51 -262 107
-537 57 -275 109 -538 117 -585 8 -47 20 -90 27 -97 8 -8 44 -8 146 2 185 19
457 35 587 35 59 0 113 4 120 8 9 6 10 50 2 192 -5 102 -13 290 -17 419 -6
192 -5 234 7 239 24 9 593 -6 603 -16 9 -9 -1 -249 -22 -507 -5 -66 -11 -176
-12 -245 l-3 -125 175 -26 c183 -27 316 -53 487 -96 56 -14 109 -23 117 -20 9
4 18 19 22 34 9 41 187 713 234 883 55 201 110 425 110 448 0 26 -92 135 -259
306 -231 236 -412 384 -711 582 -187 125 -391 251 -416 258 -16 5 -49 -13
-135 -76z"/>
</g>
</svg>
